<svg xmlns="http://www.w3.org/2000/svg" width="222" height="18">
    <path fill-rule="evenodd" opacity=".302" fill="#26272D" d="M218.578 16.008v-5.413c0-1.36-.497-2.289-1.739-2.289-.946 0-1.511.626-1.757 1.231-.093.215-.114.519-.114.82v5.651h-3.429s.045-9.17 0-10.119h3.429v1.435l-.023.033h.023v-.033c.455-.69 1.268-1.672 3.09-1.672 2.256 0 3.949 1.445 3.949 4.554v5.802h-3.429zm-10.652-11.5h-.023c-1.151 0-1.894-.777-1.894-1.748 0-.993.766-1.749 1.94-1.749 1.173 0 1.895.756 1.916 1.749 0 .971-.743 1.748-1.939 1.748zm1.714 11.5h-3.428V5.889h3.428v10.119zM171.74 12.246c-.472 2.342-1.05 4.588-2.759 5.762-.528-3.541.775-6.2 1.38-9.023-1.031-1.641.124-4.945 2.299-4.131 2.676 1.001-2.318 6.102 1.035 6.74 3.5.665 4.929-5.743 2.759-7.827-3.136-3.009-9.13-.068-8.393 4.24.18 1.053 1.33 1.373.46 2.826-2.007-.42-2.606-1.917-2.529-3.913.124-3.267 3.104-5.554 6.093-5.871 3.78-.4 7.328 1.313 7.818 4.675.551 3.795-1.706 7.905-5.749 7.609-1.095-.081-1.555-.593-2.414-1.087zM134.497 13.783c-.291.142-.848.265-1.264.276-1.253.035-1.245-1.181-1.256-1.86V7.4H135V5h-3.023V1l-2.877.004c-.038 0-.104.034-.113.121-.134 1.247-.612 3-2.987 3.875v2.403l1.98-.003v5.601c0 1.789 1.147 4.061 4.558 4.001 1.151-.02 2.43-.513 2.712-.937l-.753-2.282zM99.35 9.07v2.61h-1.928V9.07h-2.65V7.171h2.65V4.56h1.928v2.611H102V9.07h-2.65zm-13.735 6.929c-4.205 0-7.614-3.357-7.614-7.499 0-4.141 3.409-7.5 7.614-7.5 1.98 0 3.783.745 5.137 1.966L88.508 5.13a4.504 4.504 0 0 0-2.893-1.045c-2.475 0-4.482 1.977-4.482 4.415 0 2.438 2.007 4.414 4.482 4.414a4.481 4.481 0 0 0 4.191-2.848h-4.287V6.934h7.544c.109.505.166 1.029.166 1.566 0 4.142-3.409 7.499-7.614 7.499zM50.985 17.992h-3.998V9.496h-1.998V6.222h1.998V4.258C46.987 1.589 48.115 0 51.32 0h2.668v3.273h-1.667c-1.248 0-1.331.458-1.331 1.312l-.005 1.637h3.022l-.354 3.274h-2.668v8.496zM17 3.658a6.922 6.922 0 0 1-2.003.557A3.54 3.54 0 0 0 16.53 2.26a6.938 6.938 0 0 1-2.215.858 3.457 3.457 0 0 0-2.545-1.117c-1.926 0-3.488 1.582-3.488 3.534 0 .278.032.547.091.806-2.898-.148-5.467-1.555-7.187-3.693a3.545 3.545 0 0 0-.472 1.777c0 1.226.616 2.308 1.551 2.942a3.464 3.464 0 0 1-1.579-.443v.045c0 1.712 1.201 3.14 2.797 3.465a3.438 3.438 0 0 1-1.575.06c.444 1.404 1.732 2.426 3.258 2.454a6.941 6.941 0 0 1-5.164 1.464 9.78 9.78 0 0 0 5.346 1.587c6.414 0 9.922-5.384 9.922-10.054 0-.154-.004-.306-.01-.457A7.142 7.142 0 0 0 17 3.659v-.001z"/>
</svg>
