<svg xmlns="http://www.w3.org/2000/svg" width="140" height="13">
    <path fill-rule="evenodd" fill="#26272D" d="M139.934 10.361v1.409h-7.504V.441h7.264v1.393h-5.68v3.391h5.344v1.361h-5.344v3.775h5.92zm-16.536-1.032c.368.412.816.734 1.344.969a4.316 4.316 0 0 0 1.768.352 3.9 3.9 0 0 0 1.744-.385 3.37 3.37 0 0 0 1.296-1.119l1.264.863a5.085 5.085 0 0 1-1.744 1.481c-.715.378-1.574.567-2.576.567a6.347 6.347 0 0 1-2.392-.44 5.547 5.547 0 0 1-1.888-1.232 5.652 5.652 0 0 1-1.24-1.887c-.299-.731-.448-1.534-.448-2.408 0-.885.152-1.694.456-2.424a5.479 5.479 0 0 1 1.264-1.873 5.766 5.766 0 0 1 1.912-1.208 6.55 6.55 0 0 1 2.4-.432c.384 0 .773.038 1.168.113.394.074.773.186 1.136.336.362.149.693.333.992.551.298.219.554.472.768.76l-1.248.961c-.278-.385-.67-.702-1.176-.952a3.646 3.646 0 0 0-1.64-.376c-.662 0-1.256.12-1.784.36s-.979.567-1.352.984a4.42 4.42 0 0 0-.864 1.448 5.01 5.01 0 0 0-.304 1.752c0 .64.098 1.237.296 1.791a4.28 4.28 0 0 0 .848 1.448zm-13.032-6.807h-.032v9.248h-1.584V.441h2.064l5.92 9.056h.032V.441h1.584V11.77h-2l-5.984-9.248zM99.134.441h7.264v1.393h-5.68v3.391h5.344v1.361h-5.344v3.775h5.92v1.409h-7.504V.441zm-4.144 9.944a6.097 6.097 0 0 1-1.968 1.04 7.16 7.16 0 0 1-2.176.345h-3.888V.441h3.888c.726 0 1.451.107 2.176.321a5.832 5.832 0 0 1 1.968 1.007 5.156 5.156 0 0 1 1.424 1.76c.363.715.544 1.574.544 2.577 0 .97-.181 1.81-.544 2.519a5.233 5.233 0 0 1-1.424 1.76zm-.08-6.135a3.627 3.627 0 0 0-.984-1.336 4.321 4.321 0 0 0-1.504-.816 6.158 6.158 0 0 0-1.896-.28h-1.984v8.56h1.984a6.01 6.01 0 0 0 1.896-.288 4.386 4.386 0 0 0 1.504-.833c.422-.362.75-.81.984-1.344.235-.533.352-1.135.352-1.807 0-.704-.117-1.323-.352-1.856zM82.622.441h1.584V11.77h-1.584V.441zM75.358 11.77 70.942.441h1.76l3.408 9.281h.048L79.566.441h1.712L76.83 11.77h-1.472zm-6.688-1.385a5.615 5.615 0 0 1-1.904 1.232 6.41 6.41 0 0 1-2.4.44 6.35 6.35 0 0 1-2.392-.44 5.65 5.65 0 0 1-1.896-1.232 5.611 5.611 0 0 1-1.248-1.887 6.322 6.322 0 0 1-.448-2.408c0-.885.15-1.694.448-2.424a5.455 5.455 0 0 1 1.248-1.873A5.715 5.715 0 0 1 61.974.585a6.488 6.488 0 0 1 2.392-.432 6.55 6.55 0 0 1 2.4.432 5.68 5.68 0 0 1 1.904 1.208 5.531 5.531 0 0 1 1.256 1.873c.304.73.456 1.539.456 2.424 0 .874-.152 1.677-.456 2.408a5.691 5.691 0 0 1-1.256 1.887zm-.304-6.047a4.437 4.437 0 0 0-.864-1.448 4.021 4.021 0 0 0-1.352-.984c-.528-.24-1.122-.36-1.784-.36-.65 0-1.24.12-1.768.36a3.94 3.94 0 0 0-1.344.984 4.525 4.525 0 0 0-.856 1.448 5.034 5.034 0 0 0-.304 1.752c0 .629.102 1.221.304 1.776.203.554.491 1.037.864 1.448.374.41.822.733 1.344.968.523.235 1.11.352 1.76.352.651 0 1.243-.117 1.776-.352a3.98 3.98 0 0 0 1.36-.968c.374-.411.661-.894.864-1.448a5.13 5.13 0 0 0 .304-1.776 5.01 5.01 0 0 0-.304-1.752zM55.294 11.77l-2.88-5.04h-1.696v5.04h-1.584V.441h3.632c.544 0 1.062.057 1.552.168.491.113.92.292 1.288.537.368.245.659.568.872.968.214.399.32.887.32 1.463 0 .833-.256 1.505-.768 2.016-.512.513-1.173.838-1.984.976l3.168 5.201h-1.92zm-.872-6.776c.24-.144.43-.331.568-.56.139-.23.208-.515.208-.857 0-.341-.069-.626-.208-.855a1.586 1.586 0 0 0-.552-.552 2.39 2.39 0 0 0-.808-.296 5.195 5.195 0 0 0-.976-.088h-1.936v3.616h1.824c.374 0 .72-.033 1.04-.096.32-.065.6-.168.84-.312zm-8.479 1.047a3.88 3.88 0 0 1-1.312.569 6.999 6.999 0 0 1-1.64.184h-1.792v4.976h-1.584V.441h3.456c.608 0 1.162.062 1.664.185.501.122.928.312 1.28.567.352.257.624.582.816.977.192.394.288.869.288 1.424 0 .565-.104 1.05-.312 1.455a2.665 2.665 0 0 1-.864.992zm-.624-3.304a1.628 1.628 0 0 0-.544-.56 2.315 2.315 0 0 0-.824-.303 5.745 5.745 0 0 0-1.04-.088h-1.712V5.45h1.68c.384 0 .738-.035 1.064-.104.325-.069.605-.177.84-.321.234-.144.416-.333.544-.568.128-.234.192-.522.192-.863 0-.342-.067-.627-.2-.857zM32.303 11.77l-2.24-7.664h-.048l-2.24 7.664h-2.72L21.839.441h2.944l1.792 7.536h.048L28.639.441h2.848l2.032 7.536h.048L35.391.441h2.848L35.007 11.77h-2.704zM13.295.441h7.616v2.305h-4.976v2.143h4.704v2.192h-4.704v2.352h5.264v2.337h-7.904V.441zm-10 3.921h-.048l.064 7.408H.655V.441h3.12l4.544 7.393h.048L8.303.441h2.656V11.77H7.855l-4.56-7.408z"/>
</svg>
